<svg width="78" height="76" viewBox="0 0 78 76" fill="none" xmlns="http://www.w3.org/2000/svg">
<path fill-rule="evenodd" clip-rule="evenodd" d="M38.9918 0C17.4303 0 0 17.4167 0 38.9635C0 56.187 11.1682 70.7663 26.6615 75.9264C28.5986 76.3143 29.3081 75.088 29.3081 74.0565C29.3081 73.1532 29.2443 70.057 29.2443 66.8309C18.3977 69.1537 16.139 62.1862 16.139 62.1862C14.3959 57.6705 11.8131 56.51 11.8131 56.51C8.26303 54.1231 12.0717 54.1231 12.0717 54.1231C16.0097 54.3812 18.076 58.1226 18.076 58.1226C21.5615 64.0569 27.1779 62.3802 29.4374 61.3478C29.7598 58.8319 30.7934 57.0902 31.8909 56.1228C23.2399 55.2195 14.1381 51.8652 14.1381 36.8988C14.1381 32.6412 15.6864 29.1579 18.1399 26.4488C17.7528 25.4814 16.3968 21.4811 18.5278 16.127C18.5278 16.127 21.8201 15.0947 29.2435 20.1265C32.4217 19.2736 35.6993 18.8398 38.9918 18.8361C42.2841 18.8361 45.6402 19.2882 48.7394 20.1265C56.1636 15.0947 59.4558 16.127 59.4558 16.127C61.5868 21.4811 60.23 25.4814 59.8429 26.4488C62.361 29.1579 63.8456 32.6412 63.8456 36.8988C63.8456 51.8652 54.7437 55.1546 46.0281 56.1228C47.4488 57.3483 48.6747 59.6703 48.6747 63.3476C48.6747 68.5726 48.6109 72.766 48.6109 74.0557C48.6109 75.088 49.3212 76.3143 51.2575 75.9272C66.7507 70.7655 77.919 56.187 77.919 38.9635C77.9828 17.4167 60.4886 0 38.9918 0Z" fill="white"/>
</svg>
