<svg width="36" height="36" viewBox="0 0 36 36" fill="none" xmlns="http://www.w3.org/2000/svg">
<path d="M36 18C36 8.05887 27.9411 0 18 0C8.05887 0 0 8.05887 0 18C0 27.9411 8.05887 36 18 36C27.9411 36 36 27.9411 36 18Z" fill="#002E61"/>
<path d="M13.6525 9.88991C13.6525 11.0915 12.6109 12.0655 11.3262 12.0655C10.0415 12.0655 9 11.0915 9 9.88991C9 8.68834 10.0415 7.71429 11.3262 7.71429C12.6109 7.71429 13.6525 8.68834 13.6525 9.88991Z" fill="white"/>
<path d="M9.31812 13.6647H13.2945V25.7143H9.31812V13.6647Z" fill="white"/>
<path d="M19.6967 13.6647H15.7202V25.7143H19.6967C19.6967 25.7143 19.6967 21.9209 19.6967 19.5492C19.6967 18.1255 20.1828 16.6956 22.1223 16.6956C24.3142 16.6956 24.3011 18.5586 24.2908 20.002C24.2774 21.8885 24.3093 23.8139 24.3093 25.7143H28.2858V19.3548C28.2521 15.2941 27.1939 13.423 23.7129 13.423C21.6456 13.423 20.3641 14.3616 19.6967 15.2106V13.6647Z" fill="white"/>
</svg>
