<svg width="41" height="47" viewBox="0 0 41 47" fill="none" xmlns="http://www.w3.org/2000/svg">
<path d="M17.4672 17.5463C19.4178 17.5463 20.9972 15.9669 20.9972 14.0162C20.9972 12.0655 19.4178 10.4861 17.4672 10.4861C15.5165 10.4861 13.9371 12.0655 13.9371 14.0162C13.9371 15.9617 15.5165 17.5463 17.4672 17.5463Z" fill="#002E61"/>
<path d="M6.07685 40.9649V45.6926C6.07685 46.4143 6.66257 47 7.38427 47H25.7772C26.4989 47 27.0846 46.4143 27.0846 45.6926V41.0852H32.2202C34.2754 41.0852 35.9541 39.4064 35.9541 37.3512V30.814L38.9612 30.7565C40.1536 30.7356 40.9067 29.4595 40.3471 28.4084L37.0628 22.2164C36.3307 20.8358 35.9489 19.2982 35.9489 17.7398C35.9489 7.89221 27.9265 -0.0778715 18.058 0.00057415C8.22098 0.0790198 0.365948 8.08576 0.465313 17.9228C0.496691 20.7573 1.19224 23.4349 2.40031 25.7987C4.81126 30.5003 6.07685 35.6934 6.07685 40.9649ZM8.06937 13.4044C8.06937 13.0697 8.2681 12.7715 8.57665 12.6408L10.5116 11.8145C10.7156 11.7256 10.8777 11.5582 10.9614 11.3543C10.9719 11.3281 10.9823 11.3072 10.9876 11.2811C11.0713 11.0772 11.0713 10.8522 10.9876 10.6483L10.1927 8.7185C10.0672 8.41 10.1351 8.0491 10.3757 7.81376L11.2595 6.92994C11.4948 6.69461 11.8505 6.62144 12.159 6.7469L14.1201 7.53664C14.3189 7.61509 14.5438 7.61509 14.7477 7.53664C14.7634 7.53136 14.7843 7.52095 14.8 7.51572C15.0092 7.43205 15.1765 7.26993 15.2654 7.06074L16.0761 5.12051C16.2068 4.81196 16.5101 4.608 16.8448 4.608H18.0947C18.4294 4.608 18.7275 4.80673 18.8583 5.11528L19.695 7.07643C19.7839 7.28033 19.946 7.43723 20.1499 7.52095C20.1604 7.52618 20.1709 7.53136 20.1814 7.53136C20.3853 7.61509 20.6154 7.62027 20.8194 7.53136L22.7753 6.72604C23.0838 6.60052 23.4447 6.66846 23.68 6.90908L24.5638 7.79285C24.7992 8.02818 24.8724 8.38386 24.7469 8.69236L23.9519 10.6796C23.8735 10.8836 23.8735 11.1085 23.9572 11.3072C23.9572 11.3125 23.9625 11.3177 23.9625 11.3229C24.0461 11.5321 24.2083 11.6994 24.4174 11.7883L26.3838 12.6094C26.6924 12.7402 26.8963 13.0435 26.8963 13.3782V14.628C26.8963 14.9627 26.6976 15.2609 26.3891 15.3916L24.4122 16.2336C24.2083 16.3225 24.0461 16.4846 23.9625 16.6938L23.952 16.72C23.8736 16.9187 23.8736 17.1436 23.9573 17.3423L24.7731 19.3087C24.9039 19.6172 24.8306 19.9781 24.5901 20.2134L23.7063 21.0972C23.4709 21.3326 23.1153 21.4057 22.8068 21.2803L20.8195 20.4854C20.6207 20.4069 20.3958 20.4069 20.1919 20.4906C20.1815 20.4959 20.1658 20.501 20.1553 20.5063C19.9514 20.59 19.7893 20.7521 19.7003 20.9561L18.895 22.9172C18.7642 23.2258 18.4609 23.4297 18.1263 23.4297H16.8764C16.5417 23.4297 16.2436 23.231 16.1128 22.9225L15.2813 20.9771C15.1924 20.7679 15.0198 20.6057 14.8106 20.5272C14.7949 20.522 14.774 20.5116 14.7583 20.5064C14.5544 20.4279 14.3295 20.4279 14.1308 20.5064L12.1905 21.3065C11.882 21.432 11.5211 21.3641 11.2857 21.1235L10.402 20.2397C10.1666 20.0043 10.0934 19.6487 10.2189 19.3402L11.0034 17.3895C11.0871 17.1856 11.0818 16.9607 10.9981 16.7567C10.9877 16.7305 10.9772 16.7096 10.9667 16.6835C10.8831 16.4743 10.7209 16.307 10.5117 16.2232L8.58721 15.4231C8.27866 15.2924 8.0747 14.989 8.0747 14.6543V13.4045H8.06937V13.4044Z" fill="#002E61"/>
</svg>
