<svg width="47" height="27" viewBox="0 0 47 27" fill="none" xmlns="http://www.w3.org/2000/svg">
<path d="M47 11.6477L46.44 9.73106L38.691 12.0101C38.2657 11.2329 37.4736 10.6879 36.5288 10.6879C36.1993 10.6879 35.8894 10.7598 35.6019 10.8766L30.096 4.01553C30.2562 3.68311 30.37 3.32224 30.37 2.92843C30.37 1.55083 29.25 0.430786 27.8724 0.430786C26.4948 0.430786 25.3762 1.55083 25.3762 2.92843C25.3762 3.6307 25.6742 4.2611 26.1399 4.71481L19.2998 21.5739C19.1726 21.5739 19.0677 21.6278 18.9464 21.6458L11.6781 10.7867C11.9477 10.3899 12.1438 9.9377 12.1438 9.4196C12.1438 8.0435 11.0238 6.92346 9.64617 6.92346C8.27007 6.92346 7.14853 8.0435 7.14853 9.4196C7.14853 9.88829 7.31174 10.3046 7.53935 10.6789L0 20.0496L1.55579 21.3014L9.18198 11.8244C9.33771 11.8559 9.48146 11.9187 9.64617 11.9187C9.76446 11.9187 9.86778 11.8648 9.98458 11.8484L17.2589 22.7194C16.9953 23.1147 16.8037 23.5609 16.8037 24.0715C16.8037 25.4476 17.9237 26.5677 19.2998 26.5677C20.6789 26.5677 21.799 25.4476 21.799 24.0715C21.799 23.4172 21.5324 22.8362 21.1251 22.3915L28.0221 5.39612C28.2108 5.38265 28.383 5.33623 28.5552 5.28681L34.2048 12.323C34.106 12.5956 34.0326 12.8786 34.0326 13.1825C34.0326 14.5601 35.1527 15.6802 36.5273 15.6802C37.6009 15.6802 38.4978 14.9929 38.8527 14.0405L47 11.6477Z" fill="#002E61"/>
</svg>
